<svg width="212" height="47" viewBox="0 0 212 47" fill="none" xmlns="http://www.w3.org/2000/svg">
<g filter="url(#filter0_d)">
<path d="M40.0326 21.164C39.1769 18.7842 38.5352 17.0796 38.1074 16.0501C37.6662 15.0073 37.3186 14.3455 37.0645 14.0647C36.7971 13.784 36.4963 13.6436 36.1621 13.6436H35.4602V19.2187L37.5458 19.9006V21.164H29.3034V19.9006L31.6699 19.2187V5.84237L29.2834 5.18057V3.91714H37.225C39.3641 3.91714 40.9484 4.29149 41.9779 5.04019C43.0074 5.78889 43.5221 6.8117 43.5221 8.1085C43.5221 10.4616 42.1851 12.0526 39.5112 12.8815C39.9791 13.0286 40.3401 13.2224 40.5941 13.4631C40.8615 13.7171 41.1155 14.0848 41.3562 14.5661C41.5969 15.0474 41.9913 15.9164 42.5394 17.1732L43.4419 19.2588L45.2267 19.9006V21.164H40.0326ZM36.6033 12.0994C37.5793 12.0994 38.3413 11.7785 38.8895 11.1368C39.4243 10.5084 39.6917 9.6594 39.6917 8.5898C39.6917 7.6139 39.4377 6.8785 38.9296 6.3838C38.4082 5.88916 37.6996 5.64183 36.8038 5.64183C36.269 5.64183 35.8212 5.70867 35.4602 5.84237V12.0994H36.6033ZM51.6241 9.2115C50.9155 9.2115 50.247 9.3185 49.6187 9.5324L48.997 11.8988H47.3324L46.8511 8.1085C48.7229 7.4133 50.6615 7.0657 52.6669 7.0657C54.1911 7.0657 55.3275 7.3197 56.0762 7.8278C56.8383 8.3358 57.2193 9.2516 57.2193 10.5752V18.8377L59.4053 19.6198V20.8231C58.6566 21.0103 58.075 21.1373 57.6605 21.2041C57.2594 21.271 56.8115 21.3044 56.3169 21.3044C55.6617 21.3044 55.0668 21.1774 54.532 20.9234C53.9972 20.6693 53.6563 20.3017 53.5092 19.8204C52.7605 20.3819 52.072 20.7897 51.4436 21.0437C50.8019 21.3111 50.1066 21.4448 49.3579 21.4448C48.3285 21.4448 47.5196 21.1373 46.9314 20.5223C46.3431 19.9073 46.049 19.065 46.049 17.9954C46.049 17.0996 46.323 16.264 46.8712 15.4886C47.4193 14.6998 48.3419 14.1784 49.6387 13.9243L53.429 13.1422V11.1769C53.429 10.4415 53.2953 9.9268 53.0279 9.6327C52.7472 9.3519 52.2792 9.2115 51.6241 9.2115ZM51.7444 15.1878C51.0091 15.3749 50.4944 15.6624 50.2002 16.0501C49.9061 16.4512 49.759 16.9659 49.759 17.5943C49.759 18.6505 50.2403 19.1786 51.203 19.1786C51.5639 19.1786 51.9517 19.0984 52.3661 18.938C52.794 18.7775 53.1482 18.6037 53.429 18.4165V14.7666L51.7444 15.1878ZM69.3122 19.8204C67.9752 20.9033 66.5112 21.4448 64.9202 21.4448C63.4228 21.4448 62.273 20.7562 61.4709 19.3792C60.6821 18.0021 60.2877 16.3108 60.2877 14.3054C60.2877 12.0459 60.8091 10.2744 61.8519 8.9909C62.8947 7.7074 64.352 7.0657 66.2238 7.0657C66.8789 7.0657 67.5073 7.166 68.1089 7.3665C68.7105 7.5671 69.0849 7.7208 69.232 7.8278V3.39572L67.046 3.07485V1.7312L71.7989 0.648254H73.0223V18.8377L75.2082 19.6198V20.8231C73.9916 21.144 72.9554 21.3044 72.0998 21.3044C71.4446 21.3044 70.8564 21.1707 70.335 20.9033C69.8135 20.6493 69.4726 20.2883 69.3122 19.8204ZM66.7653 19.1786C67.2332 19.1786 67.7078 19.0783 68.1891 18.8778C68.6571 18.6773 69.0047 18.4567 69.232 18.216V9.7129C68.9913 9.4856 68.6637 9.3051 68.2493 9.1714C67.8348 9.0244 67.4538 8.9508 67.1062 8.9508C66.1837 8.9508 65.4951 9.4188 65.0406 10.3546C64.586 11.2905 64.3587 12.5941 64.3587 14.2653C64.3587 15.7894 64.5526 16.9927 64.9403 17.8751C65.328 18.7441 65.9363 19.1786 66.7653 19.1786ZM79.9812 5.28085C79.3528 5.28085 78.7913 5.06025 78.2966 4.61905C77.8153 4.17785 77.5746 3.64974 77.5746 3.03474C77.5746 2.393 77.8153 1.83815 78.2966 1.37022C78.7913 0.902284 79.3528 0.668314 79.9812 0.668314C80.6229 0.668314 81.1711 0.902284 81.6256 1.37022C82.0668 1.83815 82.2874 2.393 82.2874 3.03474C82.2874 3.66311 82.0668 4.19122 81.6256 4.61905C81.1711 5.06025 80.6229 5.28085 79.9812 5.28085ZM84.0923 21.164H75.9101V19.7602L78.1161 19.1987V9.8132L75.9101 9.5123V8.1687L80.663 7.0657H81.9064V19.1987L84.0923 19.7602V21.164ZM92.034 7.0657C94.427 7.0657 96.192 7.7342 97.328 9.0711C98.465 10.3947 99.033 12.1395 99.033 14.3054C99.033 16.4044 98.458 18.1224 97.308 19.4594C96.172 20.783 94.414 21.4448 92.034 21.4448C89.7076 21.4448 87.9829 20.783 86.8599 19.4594C85.7234 18.1224 85.1552 16.4044 85.1552 14.3054C85.1552 12.1395 85.7101 10.3947 86.8198 9.0711C87.9428 7.7342 89.6809 7.0657 92.034 7.0657ZM94.962 14.2653C94.962 12.5539 94.741 11.2437 94.3 10.3346C93.872 9.4121 93.097 8.9508 91.9738 8.9508C90.9309 8.9508 90.209 9.4121 89.8079 10.3346C89.4202 11.2437 89.2263 12.5539 89.2263 14.2653C89.2263 15.9498 89.4402 17.2467 89.868 18.1558C90.2825 19.0783 91.0446 19.5396 92.154 19.5396C93.237 19.5396 93.973 19.085 94.36 18.1759C94.761 17.2668 94.962 15.9632 94.962 14.2653ZM108.739 3.91714C109.809 3.91714 110.812 4.111 111.748 4.49872C112.683 4.88644 113.432 5.45465 113.994 6.2034C114.569 6.9521 114.856 7.84781 114.856 8.89071C114.856 10.134 114.542 11.1635 113.913 11.9791C113.285 12.7812 112.483 13.3762 111.507 13.7639C110.518 14.1516 109.481 14.3455 108.398 14.3455C108.251 14.3455 107.991 14.3321 107.616 14.3054C107.242 14.292 107.001 14.2653 106.894 14.2252V19.2187L109.862 19.8805V21.164H100.738V19.9006L103.104 19.2187V5.84237L100.718 5.18057V3.91714H108.739ZM106.894 12.8614C107.081 12.9149 107.362 12.9417 107.737 12.9417C108.779 12.9417 109.588 12.5807 110.163 11.8587C110.725 11.1368 111.005 10.2143 111.005 9.0912C111.005 8.0617 110.772 7.2395 110.304 6.6245C109.836 6.0095 109.214 5.70199 108.439 5.70199C107.797 5.70199 107.282 5.74878 106.894 5.84237V12.8614ZM122.717 7.0657C125.11 7.0657 126.875 7.7342 128.012 9.0711C129.148 10.3947 129.716 12.1395 129.716 14.3054C129.716 16.4044 129.141 18.1224 127.992 19.4594C126.855 20.783 125.097 21.4448 122.717 21.4448C120.404 21.4448 118.68 20.783 117.543 19.4594C116.407 18.1224 115.839 16.4044 115.839 14.3054C115.839 12.1395 116.393 10.3947 117.503 9.0711C118.626 7.7342 120.364 7.0657 122.717 7.0657ZM125.645 14.2653C125.645 12.5539 125.431 11.2437 125.004 10.3346C124.562 9.4121 123.78 8.9508 122.657 8.9508C121.614 8.9508 120.899 9.4121 120.511 10.3346C120.11 11.2437 119.91 12.5539 119.91 14.2653C119.91 15.9498 120.124 17.2467 120.551 18.1558C120.966 19.0783 121.728 19.5396 122.838 19.5396C123.921 19.5396 124.656 19.085 125.044 18.1759C125.445 17.2668 125.645 15.9632 125.645 14.2653ZM151.275 8.8104L149.51 9.2917L145.78 21.3044L143.113 21.5852L140.686 14.2252L138.44 21.3044L135.813 21.5852L131.501 9.2316L130.077 8.8104V7.3465H136.936V8.89071L135.472 9.2316L137.678 16.9726L140.165 8.7302L142.511 8.3291L144.978 17.0127L146.983 9.2917L145.178 8.89071V7.3465H151.275V8.8104ZM158.454 21.4448C153.962 21.4448 151.716 19.065 151.716 14.3054C151.716 11.725 152.318 9.87331 153.521 8.75031C154.724 7.62721 156.275 7.0657 158.174 7.0657C160.139 7.0657 161.576 7.5002 162.485 8.3692C163.381 9.2383 163.829 10.602 163.829 12.4604C163.829 13.2625 163.789 13.8775 163.709 14.3054H155.787V14.9872C155.787 16.6317 156.101 17.7681 156.73 18.3965C157.345 19.0249 158.294 19.3391 159.578 19.3391C160.553 19.3391 161.85 19.1118 163.468 18.6572L163.689 19.9006C162.325 20.93 160.58 21.4448 158.454 21.4448ZM155.847 12.8013L159.999 12.4804V11.8988C159.999 10.963 159.892 10.2477 159.678 9.753C159.451 9.2583 158.996 9.011 158.314 9.011C157.378 9.011 156.743 9.3118 156.409 9.9134C156.075 10.5284 155.887 11.4911 155.847 12.8013ZM173.034 9.4522C172.299 9.4522 171.69 9.6059 171.209 9.9134V19.1987L174.458 19.7602V21.164H165.233V19.7602L167.419 19.1987V9.8132L165.233 9.5123V8.1687L169.946 7.0657H171.209V8.3692C171.824 7.9548 172.519 7.6205 173.295 7.3665C174.057 7.1125 174.759 6.9855 175.401 6.9855C175.828 6.9855 176.096 6.9922 176.203 7.0055L175.681 12.0392H173.616L173.034 9.4522ZM192.547 14.546C192.547 15.4953 192.373 16.4913 192.026 17.5341C191.678 18.5636 191.016 19.4728 190.04 20.2616C189.051 21.037 187.681 21.4247 185.929 21.4247C184.084 21.4247 182.66 21.0838 181.658 20.4019C180.641 19.7335 179.953 18.8444 179.592 17.7347C179.231 16.6116 179.05 15.2747 179.05 13.7238V5.84237L176.664 5.18057V3.91714H185.227V5.18057L182.841 5.84237V13.7238C182.841 14.9404 182.928 15.9498 183.101 16.752C183.275 17.5542 183.63 18.1959 184.164 18.6773C184.699 19.1586 185.475 19.3992 186.491 19.3992C187.828 19.3992 188.824 18.938 189.479 18.0155C190.121 17.0796 190.441 15.8362 190.441 14.2853V5.84237L188.055 5.18057V3.91714H194.934V5.18057L192.547 5.84237V14.546ZM199.827 16.8723L199.025 19.2588L200.95 19.9006V21.164H194.773V19.9206L196.759 19.2187L202.073 3.91714L204.259 3.55616L210.015 19.2187L212 19.9006V21.164H204.199V19.9006L206.024 19.3391L205.202 16.8723H199.827ZM204.64 15.3482L202.394 9.2917L200.348 15.3482H204.64Z" fill="black"/>
<path d="M32.1045 32.7826C33.2114 32.7826 34.0293 33.052 34.5582 33.5908C35.0872 34.1295 35.3517 34.8691 35.3517 35.8094C35.3517 36.7841 35.0994 37.5751 34.595 38.1824C34.0905 38.7946 33.324 39.1007 32.2955 39.1007H29.2907V38.6379L30.1576 38.3881V33.4879L29.2834 33.2455V32.7826H32.1045ZM32.0898 33.4218C31.8939 33.4218 31.7127 33.4438 31.5461 33.4879V38.3881C31.8057 38.4713 32.0726 38.513 32.3469 38.513C32.9395 38.513 33.3436 38.2681 33.5591 37.7783C33.7795 37.2885 33.8897 36.6322 33.8897 35.8094C33.8897 35.3441 33.8162 34.9303 33.6693 34.5679C33.5224 34.2103 33.3142 33.9311 33.0448 33.7303C32.7706 33.5246 32.4522 33.4218 32.0898 33.4218ZM37.4087 33.2822C37.1736 33.2822 36.9679 33.2014 36.7916 33.0398C36.6153 32.8781 36.5271 32.6847 36.5271 32.4594C36.5271 32.2243 36.6153 32.021 36.7916 31.8496C36.9679 31.6782 37.1736 31.5925 37.4087 31.5925C37.6438 31.5925 37.8421 31.6782 38.0038 31.8496C38.1703 32.021 38.2536 32.2243 38.2536 32.4594C38.2536 32.6896 38.1703 32.883 38.0038 33.0398C37.8421 33.2014 37.6438 33.2822 37.4087 33.2822ZM38.9074 39.1007H35.9173V38.5864L36.7181 38.3807V34.9425L35.9173 34.8323V34.3401L37.6585 33.936H38.1066V38.3807L38.9074 38.5864V39.1007ZM41.4714 34.6266C41.2118 34.6266 41.0061 34.6756 40.8542 34.7736C40.7024 34.8764 40.6265 35.0135 40.6265 35.185C40.6265 35.327 40.6632 35.447 40.7367 35.5449C40.8102 35.638 40.9351 35.7164 41.1114 35.78L42.2868 36.1474C42.6395 36.26 42.9015 36.4265 43.0729 36.6469C43.2394 36.8722 43.3227 37.1906 43.3227 37.602C43.3227 38.0918 43.1341 38.4811 42.757 38.7701C42.3799 39.0591 41.8558 39.2035 41.1848 39.2035C40.9155 39.2035 40.6216 39.1815 40.3032 39.1374C39.9849 39.0933 39.7057 39.0297 39.4657 38.9464L39.5906 37.5138H40.1857L40.3988 38.3807C40.6338 38.464 40.8812 38.5056 41.1408 38.5056C41.8117 38.5056 42.1472 38.295 42.1472 37.8738C42.1472 37.7269 42.1081 37.6191 42.0297 37.5506C41.9513 37.482 41.8019 37.4085 41.5815 37.3302L40.4649 36.9481C40.1367 36.8404 39.8894 36.6763 39.7229 36.4559C39.5563 36.2306 39.4731 35.9319 39.4731 35.5596C39.4731 35.0552 39.6421 34.6585 39.98 34.3695C40.3179 34.0805 40.8224 33.936 41.4934 33.936C41.7579 33.936 42.0321 33.963 42.3162 34.0169C42.6052 34.0658 42.8696 34.1393 43.1096 34.2373L42.9627 35.5303H42.3897L42.184 34.7736C42.0664 34.7246 41.9562 34.6878 41.8534 34.6634C41.7505 34.6389 41.6232 34.6266 41.4714 34.6266ZM46.298 39.2035C45.4948 39.2035 44.8998 38.9611 44.5128 38.4762C44.1259 37.9865 43.9325 37.3571 43.9325 36.5882C43.9325 35.7947 44.1235 35.1556 44.5055 34.6707C44.8875 34.1809 45.485 33.936 46.298 33.936C46.6409 33.936 46.9519 33.963 47.2311 34.0169C47.5102 34.0756 47.8016 34.1589 48.1053 34.2666L47.8996 35.7066H47.2898L47.0768 34.7589C46.8564 34.6707 46.6482 34.6266 46.4523 34.6266C46.0458 34.6266 45.7715 34.7956 45.6295 35.1335C45.4924 35.4666 45.4238 35.9466 45.4238 36.5735C45.4238 37.073 45.463 37.4551 45.5414 37.7195C45.6246 37.9889 45.7471 38.175 45.9087 38.2779C46.0703 38.3807 46.2858 38.4322 46.5552 38.4322C46.9764 38.4322 47.4735 38.3489 48.0465 38.1824L48.1273 38.6379C47.9021 38.8044 47.6253 38.9391 47.2972 39.0419C46.9739 39.1497 46.6409 39.2035 46.298 39.2035ZM51.0586 33.936C51.9353 33.936 52.5818 34.1809 52.9981 34.6707C53.4095 35.1556 53.6152 35.7947 53.6152 36.5882C53.6152 37.3571 53.4071 37.9865 52.9908 38.4762C52.5745 38.9611 51.9304 39.2035 51.0586 39.2035C50.2064 39.2035 49.5722 38.9611 49.1559 38.4762C48.7445 37.9865 48.5388 37.3571 48.5388 36.5882C48.5388 35.7947 48.742 35.1556 49.1485 34.6707C49.555 34.1809 50.1917 33.936 51.0586 33.936ZM52.1239 36.5735C52.1239 35.9466 52.0455 35.4666 51.8888 35.1335C51.7321 34.7956 51.448 34.6266 51.0366 34.6266C50.6546 34.6266 50.3901 34.7956 50.2432 35.1335C50.1011 35.4666 50.0301 35.9466 50.0301 36.5735C50.0301 37.1906 50.106 37.6657 50.2579 37.9987C50.4146 38.3366 50.6937 38.5056 51.0954 38.5056C51.497 38.5056 51.7688 38.3391 51.9108 38.006C52.0529 37.673 52.1239 37.1955 52.1239 36.5735ZM59.1839 34.5752L58.5374 34.7515L56.9506 39.1521L55.9514 39.255L54.2764 34.7295L53.7548 34.5752V34.0389H56.2894V34.6046L55.7678 34.7295L56.6714 37.5653L57.6118 34.7515L56.9506 34.6046V34.0389H59.1839V34.5752ZM61.7405 39.2035C60.0949 39.2035 59.2721 38.3317 59.2721 36.5882C59.2721 35.6429 59.4925 34.9646 59.9333 34.5532C60.3741 34.1418 60.9422 33.936 61.6377 33.936C62.3577 33.936 62.8842 34.0952 63.2172 34.4136C63.5454 34.7319 63.7094 35.2315 63.7094 35.9123C63.7094 36.2061 63.6947 36.4314 63.6653 36.5882H60.7634V36.8379C60.7634 37.4404 60.8785 37.8567 61.1087 38.0869C61.334 38.3171 61.6818 38.4322 62.152 38.4322C62.5095 38.4322 62.9846 38.3489 63.5772 38.1824L63.658 38.6379C63.1584 39.015 62.5193 39.2035 61.7405 39.2035ZM60.7855 36.0372L62.3062 35.9196V35.7066C62.3062 35.3637 62.267 35.1017 62.1887 34.9205C62.1054 34.7393 61.9389 34.6487 61.6891 34.6487C61.3463 34.6487 61.1136 34.7589 60.9912 34.9793C60.8688 35.2046 60.8002 35.5572 60.7855 36.0372ZM67.0815 34.8103C66.8121 34.8103 66.5893 34.8666 66.413 34.9793V38.3807L67.6031 38.5864V39.1007H64.2237V38.5864L65.0245 38.3807V34.9425L64.2237 34.8323V34.3401L65.9501 33.936H66.413V34.4136C66.6383 34.2617 66.8929 34.1393 67.177 34.0462C67.4562 33.9532 67.7133 33.9067 67.9484 33.9067C68.1051 33.9067 68.2031 33.9091 68.2423 33.914L68.0512 35.758H67.2946L67.0815 34.8103ZM72.4298 34.0389V34.4503L71.9449 34.7295L72.9367 37.3081L73.7963 34.7515L73.1424 34.6046V34.0389H75.3684V34.5752L74.7219 34.7515L73.26 38.7481C73.0102 39.4435 72.7359 39.9651 72.4372 40.3129C72.1384 40.6557 71.7686 40.8271 71.3278 40.8271C70.9654 40.8271 70.5613 40.7292 70.1156 40.5333L70.1964 40.0557H70.865C71.4625 40.0557 71.918 39.6492 72.2315 38.8362L70.4756 34.7295L69.9614 34.4503V34.0389H72.4298ZM78.0132 33.936C78.8899 33.936 79.5364 34.1809 79.9527 34.6707C80.369 35.1556 80.5772 35.7947 80.5772 36.5882C80.5772 37.3571 80.3666 37.9865 79.9454 38.4762C79.529 38.9611 78.885 39.2035 78.0132 39.2035C77.1659 39.2035 76.5341 38.9611 76.1178 38.4762C75.7015 37.9865 75.4933 37.3571 75.4933 36.5882C75.4933 35.7947 75.699 35.1556 76.1104 34.6707C76.517 34.1809 77.1512 33.936 78.0132 33.936ZM79.0858 36.5735C79.0858 35.9466 79.0074 35.4666 78.8507 35.1335C78.6891 34.7956 78.4026 34.6266 77.9912 34.6266C77.6091 34.6266 77.3471 34.7956 77.2051 35.1335C77.0582 35.4666 76.9847 35.9466 76.9847 36.5735C76.9847 37.1906 77.063 37.6657 77.2198 37.9987C77.3716 38.3366 77.6508 38.5056 78.0573 38.5056C78.454 38.5056 78.7234 38.3391 78.8654 38.006C79.0123 37.673 79.0858 37.1955 79.0858 36.5735ZM86.9393 38.9758C86.6797 39.0444 86.474 39.0909 86.3222 39.1154C86.1655 39.1399 85.9989 39.1521 85.8226 39.1521C85.5728 39.1521 85.3475 39.0982 85.1467 38.9905C84.9459 38.8876 84.8284 38.7456 84.7941 38.5644C84.5933 38.7456 84.3337 38.8974 84.0154 39.0199C83.697 39.1423 83.3933 39.2035 83.1044 39.2035C82.644 39.2035 82.311 39.0933 82.1052 38.8729C81.8995 38.6476 81.7967 38.3636 81.7967 38.0207V34.9425L80.9959 34.8323V34.3401L82.7371 33.936H83.1852V37.6608C83.1852 37.8959 83.2366 38.0697 83.3395 38.1824C83.4374 38.2999 83.5991 38.3587 83.8243 38.3587C83.9615 38.3587 84.1182 38.3268 84.2945 38.2632C84.4708 38.1995 84.6227 38.1187 84.75 38.0207V34.9425L83.9492 34.8323V34.3401L85.6904 33.936H86.1385V38.2485L86.9393 38.535V38.9758ZM90.3261 34.8103C90.0567 34.8103 89.8338 34.8666 89.6575 34.9793V38.3807L90.8477 38.5864V39.1007H87.4682V38.5864L88.269 38.3807V34.9425L87.4682 34.8323V34.3401L89.1947 33.936H89.6575V34.4136C89.8828 34.2617 90.1375 34.1393 90.4216 34.0462C90.7007 33.9532 90.9579 33.9067 91.193 33.9067C91.3497 33.9067 91.4476 33.9091 91.4868 33.914L91.2958 35.758H90.5391L90.3261 34.8103ZM96.644 32.7826C97.031 32.7826 97.396 32.8537 97.739 32.9957C98.082 33.1377 98.358 33.3459 98.569 33.6201C98.78 33.8944 98.885 34.2226 98.885 34.6046C98.885 35.0601 98.77 35.4372 98.54 35.736C98.309 36.0298 98.013 36.2478 97.651 36.3898C97.293 36.5318 96.916 36.6029 96.519 36.6029C96.465 36.6029 96.37 36.598 96.233 36.5882C96.096 36.5833 96.005 36.5735 95.961 36.5588V38.3881L97.056 38.6305V39.1007H93.713V38.6379L94.572 38.3881V33.4879L93.698 33.2455V32.7826H96.644ZM95.961 36.0592C96.029 36.0788 96.132 36.0886 96.269 36.0886C96.656 36.0886 96.953 35.9564 97.158 35.6919C97.369 35.4274 97.474 35.0895 97.474 34.6781C97.474 34.3009 97.389 33.9997 97.217 33.7744C97.046 33.5491 96.816 33.4365 96.527 33.4365C96.296 33.4365 96.108 33.4536 95.961 33.4879V36.0592ZM101.765 33.936C102.641 33.936 103.288 34.1809 103.704 34.6707C104.116 35.1556 104.321 35.7947 104.321 36.5882C104.321 37.3571 104.113 37.9865 103.697 38.4762C103.281 38.9611 102.636 39.2035 101.765 39.2035C100.912 39.2035 100.278 38.9611 99.862 38.4762C99.451 37.9865 99.245 37.3571 99.245 36.5882C99.245 35.7947 99.448 35.1556 99.855 34.6707C100.261 34.1809 100.898 33.936 101.765 33.936ZM102.83 36.5735C102.83 35.9466 102.752 35.4666 102.595 35.1335C102.438 34.7956 102.154 34.6266 101.743 34.6266C101.361 34.6266 101.096 34.7956 100.949 35.1335C100.807 35.4666 100.736 35.9466 100.736 36.5735C100.736 37.1906 100.812 37.6657 100.964 37.9987C101.121 38.3366 101.4 38.5056 101.801 38.5056C102.203 38.5056 102.475 38.3391 102.617 38.006C102.759 37.673 102.83 37.1955 102.83 36.5735ZM112.226 34.5752L111.572 34.7515L110.206 39.1521L109.229 39.255L108.347 36.5588L107.524 39.1521L106.555 39.255L104.982 34.7295L104.461 34.5752V34.0389H106.966V34.6046L106.43 34.7295L107.245 37.5653L108.149 34.5458L109.016 34.3989L109.919 37.5799L110.647 34.7515L109.993 34.6046V34.0389H112.226V34.5752ZM114.856 39.2035C113.211 39.2035 112.388 38.3317 112.388 36.5882C112.388 35.6429 112.608 34.9646 113.049 34.5532C113.485 34.1418 114.053 33.936 114.753 33.936C115.473 33.936 115.997 34.0952 116.326 34.4136C116.654 34.7319 116.818 35.2315 116.818 35.9123C116.818 36.2061 116.806 36.4314 116.781 36.5882H113.879V36.8379C113.879 37.4404 113.992 37.8567 114.217 38.0869C114.442 38.3171 114.793 38.4322 115.268 38.4322C115.625 38.4322 116.098 38.3489 116.686 38.1824L116.766 38.6379C116.267 39.015 115.63 39.2035 114.856 39.2035ZM113.901 36.0372L115.422 35.9196V35.7066C115.422 35.3637 115.38 35.1017 115.297 34.9205C115.214 34.7393 115.05 34.6487 114.805 34.6487C114.462 34.6487 114.229 34.7589 114.107 34.9793C113.984 35.2046 113.916 35.5572 113.901 36.0372ZM120.197 34.8103C119.928 34.8103 119.705 34.8666 119.529 34.9793V38.3807L120.719 38.5864V39.1007H117.332V38.5864L118.14 38.3807V34.9425L117.332 34.8323V34.3401L119.066 33.936H119.529V34.4136C119.754 34.2617 120.006 34.1393 120.285 34.0462C120.569 33.9532 120.827 33.9067 121.057 33.9067C121.214 33.9067 121.314 33.9091 121.358 33.914L121.16 35.758H120.41L120.197 34.8103ZM123.246 37.9399L122.284 40.2835L121.755 40.188L121.902 37.8738L122.952 37.6534L123.246 37.9399ZM128.609 38.9684C128.394 39.037 128.144 39.0909 127.86 39.1301C127.576 39.1742 127.336 39.1962 127.14 39.1962C126.782 39.1962 126.54 39.1203 126.412 38.9684C126.285 38.8215 126.221 38.6281 126.221 38.3881V34.7809H125.479V34.296L126.332 33.914L126.963 32.8855H127.588V34.0389H128.749V34.8397L127.588 34.7736V38.2264L128.609 38.4542V38.9684ZM135.192 39.1007H132.37V38.6379L132.988 38.3807V35.3539C132.988 35.1139 132.946 34.9572 132.863 34.8838C132.775 34.8103 132.593 34.7736 132.319 34.7736C131.922 34.7736 131.58 34.8127 131.291 34.8911V38.3807L131.908 38.6379V39.1007H129.101V38.5864L129.902 38.3807V32.5916L129.101 32.4741V31.9819L130.842 31.5851H131.291V34.3475C131.491 34.2544 131.775 34.1613 132.143 34.0683C132.515 33.9801 132.841 33.936 133.12 33.936C133.487 33.936 133.788 34.0242 134.023 34.2005C134.259 34.3768 134.376 34.6462 134.376 35.0086V38.3807L135.192 38.6379V39.1007ZM138.049 39.2035C136.404 39.2035 135.581 38.3317 135.581 36.5882C135.581 35.6429 135.801 34.9646 136.242 34.5532C136.678 34.1418 137.246 33.936 137.947 33.936C138.667 33.936 139.191 34.0952 139.519 34.4136C139.847 34.7319 140.011 35.2315 140.011 35.9123C140.011 36.2061 139.999 36.4314 139.974 36.5882H137.072V36.8379C137.072 37.4404 137.185 37.8567 137.41 38.0869C137.636 38.3171 137.986 38.4322 138.461 38.4322C138.818 38.4322 139.291 38.3489 139.879 38.1824L139.96 38.6379C139.46 39.015 138.823 39.2035 138.049 39.2035ZM137.094 36.0372L138.615 35.9196V35.7066C138.615 35.3637 138.573 35.1017 138.49 34.9205C138.407 34.7393 138.243 34.6487 137.998 34.6487C137.655 34.6487 137.422 34.7589 137.3 34.9793C137.178 35.2046 137.109 35.5572 137.094 36.0372ZM145.323 32.7826C145.714 32.7826 146.082 32.8537 146.424 32.9957C146.767 33.1377 147.042 33.3459 147.247 33.6201C147.458 33.8944 147.563 34.2226 147.563 34.6046C147.563 35.0601 147.448 35.4372 147.218 35.736C146.988 36.0298 146.694 36.2478 146.336 36.3898C145.974 36.5318 145.594 36.6029 145.198 36.6029C145.144 36.6029 145.048 36.598 144.911 36.5882C144.774 36.5833 144.683 36.5735 144.639 36.5588V38.3881L145.734 38.6305V39.1007H142.391V38.6379L143.251 38.3881V33.4879L142.377 33.2455V32.7826H145.323ZM144.639 36.0592C144.708 36.0788 144.811 36.0886 144.948 36.0886C145.335 36.0886 145.634 35.9564 145.844 35.6919C146.05 35.4274 146.153 35.0895 146.153 34.6781C146.153 34.3009 146.067 33.9997 145.896 33.7744C145.724 33.5491 145.494 33.4365 145.205 33.4365C144.975 33.4365 144.786 33.4536 144.639 33.4879V36.0592ZM150.443 33.936C151.32 33.936 151.966 34.1809 152.383 34.6707C152.799 35.1556 153.007 35.7947 153.007 36.5882C153.007 37.3571 152.796 37.9865 152.375 38.4762C151.959 38.9611 151.315 39.2035 150.443 39.2035C149.591 39.2035 148.959 38.9611 148.548 38.4762C148.131 37.9865 147.923 37.3571 147.923 36.5882C147.923 35.7947 148.126 35.1556 148.533 34.6707C148.944 34.1809 149.581 33.936 150.443 33.936ZM151.516 36.5735C151.516 35.9466 151.435 35.4666 151.273 35.1335C151.116 34.7956 150.832 34.6266 150.421 34.6266C150.039 34.6266 149.775 34.7956 149.628 35.1335C149.486 35.4666 149.415 35.9466 149.415 36.5735C149.415 37.1906 149.493 37.6657 149.65 37.9987C149.801 38.3366 150.081 38.5056 150.487 38.5056C150.884 38.5056 151.153 38.3391 151.295 38.006C151.442 37.673 151.516 37.1955 151.516 36.5735ZM160.905 34.5752L160.258 34.7515L158.884 39.1521L157.907 39.255L157.026 36.5588L156.203 39.1521L155.233 39.255L153.661 34.7295L153.139 34.5752V34.0389H155.644V34.6046L155.115 34.7295L155.924 37.5653L156.827 34.5458L157.694 34.3989L158.598 37.5799L159.332 34.7515L158.671 34.6046V34.0389H160.905V34.5752ZM163.535 39.2035C161.889 39.2035 161.066 38.3317 161.066 36.5882C161.066 35.6429 161.287 34.9646 161.727 34.5532C162.163 34.1418 162.731 33.936 163.432 33.936C164.152 33.936 164.676 34.0952 165.004 34.4136C165.337 34.7319 165.504 35.2315 165.504 35.9123C165.504 36.2061 165.489 36.4314 165.459 36.5882H162.558V36.8379C162.558 37.4404 162.67 37.8567 162.896 38.0869C163.126 38.3171 163.476 38.4322 163.946 38.4322C164.304 38.4322 164.776 38.3489 165.364 38.1824L165.452 38.6379C164.948 39.015 164.308 39.2035 163.535 39.2035ZM162.58 36.0372L164.1 35.9196V35.7066C164.1 35.3637 164.059 35.1017 163.975 34.9205C163.897 34.7393 163.733 34.6487 163.483 34.6487C163.14 34.6487 162.908 34.7589 162.785 34.9793C162.663 35.2046 162.594 35.5572 162.58 36.0372ZM168.876 34.8103C168.606 34.8103 168.383 34.8666 168.207 34.9793V38.3807L169.397 38.5864V39.1007H166.018V38.5864L166.819 38.3807V34.9425L166.018 34.8323V34.3401L167.744 33.936H168.207V34.4136C168.432 34.2617 168.685 34.1393 168.964 34.0462C169.248 33.9532 169.505 33.9067 169.735 33.9067C169.897 33.9067 169.997 33.9091 170.036 33.914L169.838 35.758H169.089L168.876 34.8103ZM178.007 33.2455V32.7826H180.27V33.2381L179.543 33.4879L178.242 39.0713L177.449 39.2035L176.105 34.9866L174.981 39.0713L174.195 39.2035L172.586 33.4953L171.858 33.2455V32.7826H174.716V33.2455L174.048 33.4512L174.819 36.9996L175.664 33.5467L176.95 33.3116L178.007 37.051L178.727 33.4879L178.007 33.2455ZM181.872 33.2822C181.642 33.2822 181.436 33.2014 181.255 33.0398C181.078 32.8781 180.99 32.6847 180.99 32.4594C180.99 32.2243 181.078 32.021 181.255 31.8496C181.436 31.6782 181.642 31.5925 181.872 31.5925C182.107 31.5925 182.308 31.6782 182.474 31.8496C182.636 32.021 182.717 32.2243 182.717 32.4594C182.717 32.6896 182.636 32.883 182.474 33.0398C182.308 33.2014 182.107 33.2822 181.872 33.2822ZM183.378 39.1007H180.38V38.5864L181.188 38.3807V34.9425L180.38 34.8323V34.3401L182.121 33.936H182.577V38.3807L183.378 38.5864V39.1007ZM186.779 38.9684C186.569 39.037 186.321 39.0909 186.037 39.1301C185.753 39.1742 185.511 39.1962 185.31 39.1962C184.952 39.1962 184.71 39.1203 184.583 38.9684C184.455 38.8215 184.392 38.6281 184.392 38.3881V34.7809H183.657V34.296L184.509 33.914L185.134 32.8855H185.765V34.0389H186.926V34.8397L185.765 34.7736V38.2264L186.779 38.4542V38.9684ZM193.362 39.1007H190.548V38.6379L191.165 38.3807V35.3539C191.165 35.1139 191.121 34.9572 191.033 34.8838C190.95 34.8103 190.771 34.7736 190.497 34.7736C190.095 34.7736 189.752 34.8127 189.468 34.8911V38.3807L190.085 38.6379V39.1007H187.271V38.5864L188.08 38.3807V32.5916L187.271 32.4741V31.9819L189.013 31.5851H189.468V34.3475C189.664 34.2544 189.948 34.1613 190.32 34.0683C190.688 33.9801 191.013 33.936 191.297 33.936C191.66 33.936 191.959 34.0242 192.194 34.2005C192.434 34.3768 192.554 34.6462 192.554 35.0086V38.3807L193.362 38.6379V39.1007ZM195.242 33.2822C195.012 33.2822 194.807 33.2014 194.625 33.0398C194.449 32.8781 194.361 32.6847 194.361 32.4594C194.361 32.2243 194.449 32.021 194.625 31.8496C194.807 31.6782 195.012 31.5925 195.242 31.5925C195.478 31.5925 195.678 31.6782 195.845 31.8496C196.007 32.021 196.087 32.2243 196.087 32.4594C196.087 32.6896 196.007 32.883 195.845 33.0398C195.678 33.2014 195.478 33.2822 195.242 33.2822ZM196.749 39.1007H193.751V38.5864L194.559 38.3807V34.9425L193.751 34.8323V34.3401L195.492 33.936H195.948V38.3807L196.749 38.5864V39.1007ZM199.327 34.3475C199.508 34.2642 199.783 34.176 200.15 34.083C200.522 33.985 200.853 33.936 201.142 33.936C201.509 33.936 201.813 34.0218 202.053 34.1932C202.293 34.3646 202.413 34.6364 202.413 35.0086V38.3807L203.228 38.6379V39.1007H200.407V38.6379L201.024 38.3807V35.3539C201.024 35.1825 201.005 35.0576 200.965 34.9793C200.921 34.896 200.853 34.8397 200.76 34.8103C200.662 34.7858 200.515 34.7736 200.319 34.7736C199.952 34.7736 199.621 34.8127 199.327 34.8911V38.3807L199.944 38.6379V39.1007H197.138V38.6379L197.939 38.3807V34.9352L197.138 34.8323V34.3181L198.879 33.936H199.327V34.3475ZM207.085 32.7826L206.777 37.1685H205.88L205.572 32.7826H207.085ZM205.631 38.5056C205.631 38.3048 205.699 38.1334 205.836 37.9914C205.968 37.8444 206.135 37.771 206.336 37.771C206.527 37.771 206.691 37.8444 206.828 37.9914C206.965 38.1334 207.034 38.3048 207.034 38.5056C207.034 38.6966 206.968 38.8583 206.835 38.9905C206.698 39.1178 206.532 39.1815 206.336 39.1815C206.13 39.1815 205.961 39.1178 205.829 38.9905C205.697 38.8631 205.631 38.7015 205.631 38.5056ZM209.539 32.7826L209.23 37.1685H208.341L208.033 32.7826H209.539ZM208.092 38.5056C208.092 38.3048 208.158 38.1334 208.29 37.9914C208.427 37.8444 208.594 37.771 208.79 37.771C208.981 37.771 209.145 37.8444 209.282 37.9914C209.419 38.1334 209.487 38.3048 209.487 38.5056C209.487 38.6966 209.421 38.8583 209.289 38.9905C209.157 39.1178 208.99 39.1815 208.79 39.1815C208.584 39.1815 208.417 39.1178 208.29 38.9905C208.158 38.8631 208.092 38.7015 208.092 38.5056ZM212 32.7826L211.691 37.1685H210.795L210.487 32.7826H212ZM210.553 38.5056C210.553 38.3048 210.619 38.1334 210.751 37.9914C210.883 37.8444 211.05 37.771 211.251 37.771C211.442 37.771 211.606 37.8444 211.743 37.9914C211.88 38.1334 211.949 38.3048 211.949 38.5056C211.949 38.6966 211.882 38.8583 211.75 38.9905C211.613 39.1178 211.447 39.1815 211.251 39.1815C211.045 39.1815 210.876 39.1178 210.744 38.9905C210.616 38.8631 210.553 38.7015 210.553 38.5056Z" fill="black"/>
<path d="M14.135 6.9936L16.5328 3.85039C16.6802 3.65469 16.7876 3.43188 16.8488 3.19469C16.9101 2.95749 16.924 2.71055 16.8899 2.46796C16.8557 2.22538 16.7741 1.9919 16.6496 1.78086C16.5252 1.56982 16.3605 1.38535 16.1648 1.23799C15.9691 1.09062 15.7463 0.983248 15.5091 0.921992C15.2719 0.860735 15.0249 0.846798 14.7823 0.880976C14.5398 0.915155 14.3063 0.996779 14.0952 1.12119C13.8842 1.2456 13.6997 1.41036 13.5524 1.60606L10.7244 5.31188C10.8568 5.35346 10.9851 5.40531 11.1078 5.46845L14.135 6.9936ZM15.8634 7.86474C16.1509 8.011 16.4064 8.21287 16.6153 8.45863C16.8241 8.7044 16.9821 8.98918 17.0801 9.29646C17.1571 9.53516 17.1966 9.77951 17.1997 10.0234L20.753 5.3319C21.0507 4.93667 21.1791 4.43939 21.1101 3.94947C21.041 3.45955 20.7802 3.01712 20.385 2.7195C19.9897 2.42188 19.4925 2.29346 19.0025 2.36249C18.5126 2.43151 18.0702 2.69233 17.7726 3.08757L14.6253 7.24206L15.8634 7.86474V7.86474ZM20.5698 6.48282L16.7017 11.547C16.493 11.8238 16.3656 12.1534 16.3338 12.4987C16.302 12.844 16.3671 13.1913 16.5218 13.5016C16.6765 13.8119 16.9146 14.073 17.2095 14.2555C17.5043 14.438 17.8442 14.5346 18.1909 14.5346C18.7572 14.5346 19.3162 14.2779 19.6827 13.7913L23.5503 8.72767C23.8479 8.33244 23.9764 7.83513 23.9074 7.34516C23.8385 6.8552 23.5777 6.4127 23.1824 6.11501C22.7872 5.81732 22.2899 5.68884 21.7999 5.75782C21.31 5.82679 20.8675 6.08759 20.5698 6.48282V6.48282Z" fill="url(#paint0_linear)"/>
<path d="M23.793 18.3416C24.2078 17.4217 24.3361 16.3601 24.3628 15.5506L24.1385 15.8509C23.9191 16.1446 23.634 16.3828 23.3059 16.5463C22.9778 16.7098 22.6159 16.7941 22.2494 16.7923C21.7366 16.7936 21.2377 16.6266 20.8289 16.317C20.5673 16.1206 20.3495 15.8718 20.1894 15.5865C20.0294 15.3011 19.9305 14.9856 19.8993 14.6599C19.4167 14.7985 18.9018 14.9725 18.3598 15.1938C17.7994 15.4212 17.2584 15.6933 16.7417 16.0074L16.6888 15.9885C16.6888 15.9885 16.6888 14.6168 13.7402 12.5167C12.6837 11.7641 10.1452 10.7518 10.1452 10.7518L10.4255 10.065L13.8505 11.7908C14.3124 12.0277 14.8495 12.0713 15.3435 11.9122C15.8376 11.753 16.2482 11.4042 16.485 10.9423C16.7219 10.4804 16.7655 9.94337 16.6064 9.44931C16.4472 8.95524 16.0983 8.54464 15.6365 8.30781L10.3978 5.67795C10.1181 5.53445 9.80819 5.45966 9.4938 5.45978C8.77974 5.45978 8.09032 5.84479 7.76281 6.52702C7.51332 7.04755 5.91939 10.2821 5.78746 11.664C5.75153 12.0398 5.8696 12.8067 6.00615 13.1589C6.6699 14.8781 9.65859 18.8365 10.7402 20.2395L4 34.4005H11.925L5.27361 47L23.869 28.761H16.1329L21.4706 22.0541C22.2175 21.1825 23.0589 19.9699 23.793 18.3416Z" fill="url(#paint1_linear)"/>
<path d="M25.5599 10.0311C25.237 9.78718 24.8434 9.65541 24.4387 9.65582C23.8725 9.65582 23.314 9.9125 22.9475 10.3997L20.7606 13.3072C20.4785 13.7035 20.3622 14.1942 20.4364 14.6749C20.5107 15.1556 20.7697 15.5883 21.1582 15.8809C21.5468 16.1735 22.0342 16.3029 22.5168 16.2415C22.9993 16.1801 23.4388 15.9327 23.7416 15.5521L25.928 12.644C26.2256 12.2487 26.354 11.7513 26.285 11.2613C26.216 10.7713 25.9552 10.3288 25.5599 10.0311V10.0311Z" fill="url(#paint2_linear)"/>
</g>
<defs>
<filter id="filter0_d" x="0" y="0.648254" width="216" height="54.3518" filterUnits="userSpaceOnUse" color-interpolation-filters="sRGB">
<feFlood flood-opacity="0" result="BackgroundImageFix"/>
<feColorMatrix in="SourceAlpha" type="matrix" values="0 0 0 0 0 0 0 0 0 0 0 0 0 0 0 0 0 0 127 0"/>
<feOffset dy="4"/>
<feGaussianBlur stdDeviation="2"/>
<feColorMatrix type="matrix" values="0 0 0 0 0 0 0 0 0 0 0 0 0 0 0 0 0 0 0.25 0"/>
<feBlend mode="normal" in2="BackgroundImageFix" result="effect1_dropShadow"/>
<feBlend mode="normal" in="SourceGraphic" in2="effect1_dropShadow" result="shape"/>
</filter>
<linearGradient id="paint0_linear" x1="7.67617" y1="9.53222" x2="19.6406" y2="15.1113" gradientUnits="userSpaceOnUse">
<stop stop-color="#41E296"/>
<stop offset="1" stop-color="#00C4EE"/>
</linearGradient>
<linearGradient id="paint1_linear" x1="-0.360956" y1="10.8568" x2="18.094" y2="19.4624" gradientUnits="userSpaceOnUse">
<stop stop-color="#41E296"/>
<stop offset="1" stop-color="#00C4EE"/>
</linearGradient>
<linearGradient id="paint2_linear" x1="12.7423" y1="21.5968" x2="18.0793" y2="24.0854" gradientUnits="userSpaceOnUse">
<stop stop-color="#41E296"/>
<stop offset="1" stop-color="#00C4EE"/>
</linearGradient>
</defs>
</svg>
